<?xml version="1.0" encoding="utf-8"?>
<!-- Generator: Adobe Illustrator 27.5.0, SVG Export Plug-In . SVG Version: 6.00 Build 0)  -->
<svg version="1.1" id="Layer_1" xmlns="http://www.w3.org/2000/svg" xmlns:xlink="http://www.w3.org/1999/xlink" x="0px" y="0px"
	 viewBox="0 0 800 800" style="enable-background:new 0 0 800 800;" xml:space="preserve">
<g>
	<polygon points="667.24,135.482 669.234,133.987 669.733,130.995 667.738,128.502 664.747,128.003 662.254,129.998 
		662.254,132.989 663.749,134.984 	"/>
	<polygon points="605.411,68.668 607.406,66.673 607.406,63.681 606.408,62.186 602.918,61.687 600.923,63.681 600.923,66.673 
		601.921,68.169 	"/>
	<polygon points="640.314,92.601 641.81,90.108 640.813,87.615 638.32,87.615 637.323,88.114 636.325,90.607 637.821,92.601 	"/>
	<polygon points="623.361,70.163 625.356,69.166 626.353,67.67 626.852,67.172 626.897,66.854 627.35,66.174 627.172,64.928 
		627.35,63.681 626.976,63.557 626.852,62.684 624.359,59.692 619.871,59.194 617.876,60.191 616.381,62.684 616.381,67.172 
		618.874,70.163 	"/>
	<polygon points="632.835,610.666 635.328,610.167 635.414,609.737 635.827,609.669 635.827,607.674 633.832,606.178 
		632.835,606.677 632.336,608.671 631.339,612.162 632.336,612.162 	"/>
	<polygon points="686.686,122.518 687.184,122.02 687.184,119.028 684.691,118.529 683.694,119.028 683.195,121.521 
		684.193,122.518 	"/>
	<polygon points="542.585,697.426 542.585,696.428 541.588,696.428 542.086,698.423 544.58,699.42 546.574,698.921 547.073,695.93 
		545.078,695.93 	"/>
	<polygon points="577.987,707.896 576.99,709.891 578.486,711.387 580.48,711.387 580.48,708.395 578.486,707.398 	"/>
	<polygon points="509.178,681.968 509.178,683.963 511.172,684.461 513.167,685.459 513.665,682.966 510.673,681.47 	"/>
	<polygon points="524.136,705.403 524.136,708.894 524.635,709.392 526.131,707.896 526.629,703.908 525.133,703.908 	"/>
	<polygon points="578.098,700.86 574.995,698.921 573.998,700.417 573.998,703.409 574.995,704.406 576.491,703.908 
		577.987,704.406 579.483,704.406 578.984,701.414 578.486,701.103 578.486,700.916 	"/>
	<polygon points="536.103,699.42 536.602,704.406 537.599,704.406 539.095,701.913 538.098,699.919 	"/>
	<polygon points="510.175,704.905 511.172,706.899 512.668,705.902 513.167,702.91 511.671,702.412 	"/>
	<polygon points="604.414,688.45 604.414,684.461 602.419,684.461 601.921,684.96 602.419,687.453 	"/>
	<polygon points="447.349,688.45 446.85,688.949 446.85,691.941 448.346,692.439 449.343,690.943 448.845,688.949 	"/>
	<polygon points="642.807,79.139 642.309,77.144 640.314,76.645 639.816,77.144 640.314,79.637 	"/>
	<polygon points="617.876,646.566 619.372,648.561 620.868,648.561 620.868,646.068 618.375,645.569 	"/>
	<polygon points="399.482,672.993 398.484,672.993 395.493,673.492 395.493,674.988 397.986,674.988 399.482,675.985 	"/>
	<polygon points="574.497,715.874 573.998,717.869 575.993,718.367 576.99,715.874 574.995,715.376 	"/>
	<polygon points="644.802,90.108 645.3,87.615 643.306,87.116 642.807,89.61 	"/>
	<polygon points="528.125,683.464 530.618,684.96 531.117,682.467 528.624,681.968 	"/>
	<polygon points="599.428,609.669 598.929,606.178 597.932,606.178 597.433,608.173 597.433,610.167 598.929,610.666 	"/>
	<polygon points="415.437,663.519 414.939,665.514 416.933,666.013 417.432,663.519 415.936,663.021 	"/>
	<polygon points="681.201,127.006 679.207,126.507 678.708,129 680.702,129 	"/>
	<polygon points="610.397,725.348 610.397,727.343 612.392,726.844 612.89,724.85 610.896,724.85 	"/>
	<polygon points="443.859,705.902 443.859,707.896 444.856,708.395 445.853,707.896 446.352,705.902 444.856,705.403 	"/>
	<polygon points="639.816,619.142 640.314,616.649 638.818,616.151 637.821,618.145 	"/>
	<polygon points="609.899,615.652 607.904,614.655 607.904,617.647 610.397,617.148 	"/>
	<polygon points="611.394,598.2 608.403,596.705 607.904,597.203 609.4,600.195 610.896,599.696 	"/>
	<polygon points="556.546,719.863 558.541,720.861 559.039,718.367 556.546,718.367 	"/>
	<polygon points="602.419,717.37 603.417,719.863 605.411,719.863 604.414,717.869 	"/>
	<polygon points="629.345,598.699 629.843,600.694 631.339,601.192 631.838,599.198 629.843,598.2 	"/>
	<polygon points="635.328,595.209 632.835,594.71 632.336,595.707 635.827,596.705 637.323,596.206 	"/>
	<polygon points="616.879,630.112 619.372,630.611 619.871,629.115 617.378,628.616 	"/>
	<polygon points="470.285,665.514 472.778,665.514 472.778,663.519 470.784,663.519 	"/>
	<polygon points="615.383,658.035 613.888,657.536 613.389,659.531 615.383,660.528 	"/>
	<polygon points="648.791,631.608 650.785,632.107 651.284,630.112 649.788,629.613 	"/>
	<polygon points="478.263,671.996 478.263,674.489 479.759,674.988 479.759,671.996 478.762,671.497 	"/>
	<polygon points="603.417,586.234 601.422,585.735 600.923,586.234 601.422,588.228 602.419,588.228 	"/>
	<polygon points="667.24,675.486 667.24,676.982 669.733,676.982 669.733,675.486 668.237,674.988 	"/>
	<polygon points="616.879,660.029 618.375,660.528 618.375,658.533 616.879,656.539 	"/>
	<polygon points="671.229,651.553 673.223,652.051 673.722,650.555 671.229,650.057 	"/>
	<polygon points="633.334,590.721 631.838,590.721 630.841,592.716 632.835,592.716 	"/>
	<polygon points="603.915,583.242 603.915,585.236 605.411,585.236 606.408,583.242 	"/>
	<polygon points="566.02,692.439 566.519,693.935 568.513,693.935 568.513,692.439 566.519,691.941 	"/>
	<polygon points="542.585,691.442 541.588,690.943 541.089,691.442 540.591,693.437 542.585,693.437 	"/>
	<polygon points="439.371,676.484 439.371,678.478 441.366,678.478 440.867,676.484 	"/>
	<polygon points="528.624,699.42 529.122,701.414 530.618,700.916 530.618,699.42 529.122,698.921 	"/>
	<polygon points="636.325,658.035 638.32,658.533 638.818,656.539 637.323,656.539 	"/>
	<polygon points="653.777,632.107 655.771,632.605 656.27,630.611 654.774,630.611 	"/>
	<polygon points="441.864,719.365 443.859,719.365 443.859,717.869 442.363,717.37 	"/>
	<polygon points="654.774,673.492 656.27,673.492 656.769,671.996 654.774,671.497 	"/>
	<polygon points="636.325,649.558 635.328,649.558 634.829,650.057 634.331,652.051 635.827,651.553 	"/>
	<polygon points="618.874,634.101 620.37,634.6 620.868,632.605 619.871,632.107 	"/>
	<polygon points="640.314,607.176 642.309,607.674 642.807,606.677 640.813,605.68 	"/>
	<polygon points="606.907,686.955 607.904,686.955 608.403,684.96 606.408,684.96 	"/>
	<polygon points="641.81,658.035 643.306,658.533 644.303,656.539 642.807,656.539 	"/>
	<polygon points="636.824,634.6 635.328,634.6 634.829,636.095 636.325,636.594 	"/>
	<polygon points="674.22,572.272 674.719,570.776 672.724,570.278 672.226,571.275 	"/>
	
		<rect x="590.661" y="694.144" transform="matrix(0.3163 -0.9487 0.9487 0.3163 -254.8623 1036.2532)" width="1.577" height="1.577"/>
	<polygon points="602.918,689.946 602.918,691.442 604.912,690.943 603.417,689.448 	"/>
	<polygon points="640.314,689.946 641.312,690.445 641.81,688.45 640.314,687.952 	"/>
	<rect x="720.093" y="685.957" width="1.995" height="1.496"/>
	<rect x="691.672" y="682.966" width="1.496" height="1.995"/>
	<polygon points="622.863,620.638 624.359,620.638 624.857,619.142 623.361,618.644 	"/>
	<polygon points="622.863,614.156 625.356,614.655 625.356,613.658 623.361,613.159 	"/>
	<polygon points="618.375,72.656 618.874,71.161 617.378,70.662 616.879,72.656 	"/>
	<polygon points="515.161,750.778 514.662,752.274 516.657,752.274 516.158,750.778 	"/>
	<polygon points="529.122,746.29 530.12,746.29 530.618,744.296 529.122,744.296 	"/>
	<polygon points="586.464,696.428 587.959,695.93 587.959,694.932 586.464,694.434 	"/>
	<polygon points="468.79,694.434 470.285,694.434 470.784,692.938 468.79,692.938 	"/>
	<polygon points="525.632,681.968 525.133,683.464 527.128,683.464 526.629,681.968 	"/>
	<polygon points="647.295,633.602 645.3,633.602 644.802,635.098 647.295,634.6 	"/>
	<polygon points="631.339,623.63 633.334,623.63 633.334,622.633 631.339,622.134 	"/>
	<polygon points="601.422,622.134 600.923,620.14 599.428,619.641 599.926,621.635 	"/>
	<polygon points="630.342,570.278 632.336,570.776 632.336,569.779 630.841,568.782 	"/>
	<polygon points="529.621,715.874 528.125,715.874 528.125,717.37 529.122,717.869 	"/>
	<polygon points="626.852,663.021 628.846,663.519 628.846,662.024 627.35,662.024 	"/>
	<polygon points="408.457,662.024 410.451,662.024 408.955,660.528 	"/>
	<polygon points="629.345,657.037 630.841,657.536 631.339,656.04 630.342,655.542 	"/>
	<polygon points="636.325,625.624 636.325,624.627 634.829,623.63 634.331,624.129 634.829,625.624 	"/>
	<polygon points="644.303,615.652 645.799,615.652 646.298,614.655 644.303,614.156 	"/>
	<polygon points="620.37,615.154 621.865,615.652 622.364,614.156 620.37,614.156 	"/>
	<polygon points="645.799,611.663 647.295,612.162 647.295,610.666 645.799,610.167 	"/>
	<polygon points="639.816,596.705 638.32,596.206 637.821,597.203 639.816,598.2 	"/>
	<rect x="484.745" y="716.872" width="1.496" height="1.496"/>
	<polygon points="534.607,715.874 535.604,716.373 536.103,714.379 535.106,714.379 	"/>
	<rect x="572.004" y="703.409" width="1.496" height="1.496"/>
	<rect x="591.948" y="698.921" width="1.496" height="1.496"/>
	<polygon points="472.778,690.943 474.274,690.943 474.274,689.946 472.778,688.949 	"/>
	<rect x="516.158" y="683.963" width="1.496" height="1.496"/>
	<polygon points="642.309,671.497 644.303,671.996 644.303,670.999 642.807,670.5 	"/>
	<rect x="664.747" y="652.051" width="1.496" height="1.496"/>
	<polygon points="647.794,603.685 646.298,603.187 645.799,604.682 647.295,604.682 	"/>
	<polygon points="594.441,590.223 592.946,589.724 592.447,591.22 594.441,591.22 	"/>
	<polygon points="564.524,727.841 565.521,727.841 566.02,726.345 564.524,726.345 	"/>
	<polygon points="680.204,702.412 681.7,702.91 681.7,701.414 680.204,701.414 	"/>
	<polygon points="553.056,701.913 554.053,701.414 553.555,699.42 	"/>
	<polygon points="665.744,695.93 666.741,696.428 667.24,694.932 666.242,694.434 	"/>
	<polygon points="612.89,679.974 614.386,679.475 614.386,678.478 612.89,678.478 	"/>
	<polygon points="606.408,677.979 608.403,678.977 608.403,677.979 606.408,677.481 	"/>
	<polygon points="618.375,654.544 619.871,654.544 619.871,653.048 618.874,653.048 	"/>
	<polygon points="602.918,610.167 601.422,608.671 601.422,610.167 	"/>
	<polygon points="620.868,606.677 620.868,608.173 621.865,608.173 622.364,606.677 	"/>
	<polygon points="608.901,607.674 607.406,607.674 607.406,608.671 608.901,609.17 	"/>
	<polygon points="639.816,711.885 641.81,711.387 639.816,710.888 	"/>
	<polygon points="614.386,702.91 615.383,702.91 615.882,701.913 614.386,701.414 	"/>
	<polygon points="504.191,699.42 505.687,699.919 505.687,698.921 504.191,698.423 	"/>
	<polygon points="714.609,698.921 716.104,698.921 716.104,697.924 715.107,697.426 	"/>
	<polygon points="647.295,697.924 648.791,697.924 648.791,696.927 647.794,696.428 	"/>
	<polygon points="706.132,688.949 707.129,688.949 707.628,687.952 706.132,687.453 	"/>
	<polygon points="485.244,681.47 483.748,682.966 485.244,682.966 	"/>
	<polygon points="602.918,680.971 604.414,681.47 604.414,680.473 602.918,679.974 	"/>
	<polygon points="627.35,652.051 625.854,652.051 625.854,653.048 626.852,653.547 	"/>
	<polygon points="604.912,622.134 605.411,621.137 603.915,620.638 603.915,622.134 	"/>
	<polygon points="623.86,604.682 625.356,604.682 625.356,603.685 624.359,603.187 	"/>
	<polygon points="666.242,599.696 667.738,600.195 667.738,598.699 666.741,598.699 	"/>
	<polygon points="598.43,577.258 596.934,576.76 596.934,577.757 598.43,578.256 	"/>
	<polygon points="616.381,733.326 617.876,733.825 617.876,732.827 616.879,732.329 	"/>
	<polygon points="564.026,716.872 563.527,718.367 565.023,718.367 	"/>
	<rect x="499.704" y="710.39" width="0.997" height="1.496"/>
	<rect x="634.829" y="685.459" width="1.496" height="0.997"/>
	<rect x="387.515" y="675.985" width="0.997" height="1.496"/>
	<polygon points="647.295,659.032 648.292,660.029 648.791,658.533 647.794,658.533 	"/>
	<rect x="623.86" y="608.671" width="1.496" height="0.997"/>
	<polygon points="592.447,601.691 591.948,603.187 593.444,602.688 	"/>
	<rect x="625.854" y="595.209" width="1.496" height="0.997"/>
	<rect x="656.769" y="83.626" width="1.496" height="0.997"/>
	<polygon points="605.411,711.885 606.907,711.387 605.411,710.888 	"/>
	<polygon points="609.899,683.464 611.394,682.966 609.899,682.467 	"/>
	<polygon points="610.397,675.486 609.899,676.982 611.394,675.985 	"/>
	<polygon points="656.769,655.043 657.766,655.043 657.766,654.046 656.769,653.547 	"/>
	<polygon points="670.73,638.589 670.73,639.586 672.226,639.087 	"/>
	<polygon points="662.254,610.167 662.752,608.671 661.755,608.671 	"/>
	<polygon points="567.516,64.679 566.02,64.679 566.02,65.177 567.516,65.676 	"/>
	<rect x="592.946" y="705.902" width="0.997" height="0.997"/>
	<polygon points="561.533,702.91 562.53,702.412 561.533,701.414 	"/>
	<polygon points="586.464,700.417 587.959,700.916 586.962,699.919 	"/>
	<rect x="653.278" y="699.42" width="0.997" height="0.997"/>
	<rect x="702.143" y="696.927" width="0.997" height="0.997"/>
	<rect x="529.122" y="685.957" width="0.997" height="0.997"/>
	<rect x="621.865" y="662.522" width="0.997" height="0.997"/>
	<rect x="625.854" y="657.536" width="0.997" height="0.997"/>
	<rect x="622.863" y="653.547" width="0.997" height="0.997"/>
	<rect x="407.958" y="651.054" width="0.997" height="0.997"/>
	<rect x="652.281" y="647.564" width="0.997" height="0.997"/>
	<rect x="623.86" y="625.624" width="0.997" height="0.997"/>
	<rect x="755.495" y="623.131" width="0.997" height="0.997"/>
	<rect x="606.408" y="618.145" width="0.997" height="0.997"/>
	<rect x="591.948" y="606.178" width="0.997" height="0.997"/>
	<rect x="605.91" y="604.682" width="0.997" height="0.997"/>
	<rect x="597.433" y="598.2" width="0.997" height="0.997"/>
	<rect x="202.527" y="46.23" width="0.997" height="0.997"/>
	<polygon points="687.683,708.395 688.68,708.894 688.182,707.896 	"/>
	<polygon points="585.466,707.896 586.464,707.896 585.466,706.899 	"/>
	<polygon points="494.219,705.902 495.216,706.401 494.718,705.403 	"/>
	<polygon points="560.535,700.916 561.034,699.919 560.037,699.919 	"/>
	<polygon points="629.843,687.453 630.342,686.456 629.345,686.456 	"/>
	<polygon points="600.923,682.467 600.923,683.464 601.921,682.966 	"/>
	<polygon points="399.482,679.475 400.479,679.974 399.98,678.977 	"/>
	<polygon points="616.879,673.99 617.876,674.489 617.378,673.492 	"/>
	<polygon points="700.149,671.497 701.146,671.497 700.149,670.5 	"/>
	<polygon points="643.306,640.084 644.303,640.084 643.306,639.087 	"/>
	<polygon points="596.934,615.154 597.932,615.154 596.934,614.156 	"/>
	<polygon points="625.356,585.735 624.857,586.234 625.854,586.732 	"/>
	<polygon points="612.89,583.242 613.888,583.74 613.389,582.743 	"/>
	<path d="M749.433,343.416l-5.561-3.752l-1.748-1.697l-2.548-2.736l-1.087-2.365l-1.128-3.222l-1.551-7.982l-1.897-2.755
		l-8.141-14.971l-3.793-5.51l-4.071-7.485l-4.061-11.011l-2.035-3.743l-3.221-8.611l-2.086-11.288l-3.567-11.08l-2.529-3.673
		l-1.966-3.249l-1.117-4.375l1.412-0.701l-0.138-0.988l-2.044-0.217l-0.701-1.412l-1.394-6.35l-3.923-10.023l-1.966-3.249
		l-3.655-4.522l-0.84-2.4l1.56-3.24l2.833-4.929l1.638-6.272l-0.069-0.494l-0.415-2.963l-1.923-1.744l-1.081-1.215l-0.72-2.057
		l-0.415-2.963l0.355-1.057l2.755-1.897v0l1.837-1.264l1.412-0.702l-0.035-0.247l0.459-0.316l2.27-5.353l2.843-8.454l-0.415-2.963
		l-0.632-0.918l-3.17-1.066l-2.677-1.135l0.009-3.526l-2.044-0.217l-0.711,2.114l-1.975,0.277l-7.891-2.418l-4.859-2.34
		l-6.272-1.638l-4.79-1.846l-2.875-6.142l-2.312-5.718l-1.689-1.274l-4.227-1.421l-3.309-2.054l-3.101-0.572l-3.803-1.984
		l-2.321-2.192l-3.664-0.997l-0.319-0.023v-3.796l-0.997-2.493l-1.027-0.88l0.029-0.117l-2.493-1.994h-3.989l-1.995,0.997
		l-0.378,0.473l-1.269-9.052l-0.545-7.476l-1.948-10.3l-1.68-4.799l-3.586-4.029l-4.366-2.409l-8.178-0.867l-4.158-0.928
		l-2.815-2.123l-3.447-3.041l-5.076-0.295l-7.901,1.108l-7.153-0.416l-0.354-0.222l-0.894,0.149l-4.29-0.25l-8.602-0.305
		l-9.203,0.69l-2.939-0.784l-1.994-1.496l-3.49-0.499l-6.482-1.994l-13.961-4.986l-7.479-2.992l-6.981-2.992h-4.986l-5.485,1.496
		l-2.493-0.499l-1.496-1.496l-4.986-0.997l-10.471,0.499l-0.997-0.499l-1.496-0.665v-0.332l-2.992-0.997l-2.992-4.488l-3.989-0.499
		l-2.992,0.997l-2.493,0.499h-2.493h-2.493l-0.885,0.483l-0.113,0.016l-2.659,1.496l-1.829,0.997l-4.986,2.493h-4.488l-1.496-0.997
		l-0.997-3.989l-1.496-9.972l-1.496-1.496l-1.496-2.992l-2.992-3.989l-0.169-0.075l-0.329-0.423h-0.623l-3.366-1.496l-3.989-2.493
		l-6.981-1.995h-4.488l-5.983,3.49l-4.488,4.986l-1.923,1.496l-3.063,2.144l-2.493,0.748l-3.348,0.67l-8.12,0.427l-2.992,1.496
		l-15.956,5.983l-5.983,2.992l-7.978,2.992l-11.468,2.493l-3.989,1.496l-8.975,1.994l-11.468,0.499l-11.468,1.995l-3.989,1.994
		l-3.49,1.496l-4.488,0.499l-0.499-1.496h-0.997l-0.499,1.994l-1.496,0.499l-6.482,0.499l-10.471,2.493l-3.49,1.496l-4.986,2.992
		l-2.493,0.499l-2.992-1.994l-4.488-3.49l-5.983-2.493h-0.499h-2.992l-1.995,1.662l-1.353,0.902l-2.137,0.427h-2.992l-0.997-0.499
		l-1.496-2.992v0l-0.997-1.994l-0.499-1.496h-0.249l-0.249-0.499l-4.986-2.992l-7.978-3.989h-2.992l-0.997,0.499l-1.496,2.992
		l-1.496,2.493l-3.49-0.499l-0.499,1.994l1.994,0.997v1.995l-3.49,7.479l-2.992,4.488l-2.493,5.983l-2.493,4.488l-6.482,1.995
		l-5.983,1.496l-1.496,1.496l-1.995,3.989l-2.493,2.992l-0.997,2.992l-2.493,3.49l-2.493,1.994l-1.496,3.49l-0.43,2.008
		l-0.068-0.014l-0.1,0.798l-0.898,4.188l-0.997,1.994l-3.49,0.997h-12.465l-7.479-0.499l-10.471,0.499l-4.986,0.997l-4.488,2.992
		l-2.992,3.989l-1.994,7.978l-1.496,3.989l-2.493,2.493l-3.49,2.992l-0.997,4.986v7.978l-2.493,12.465l-1.496,8.477l-0.997,15.457
		l-2.493,13.961l-1.496,13.463l-1.496,11.967l-1.496,2.992l-1.994,5.485v8.975l0.997,5.485l3.49,10.97l4.986,13.961l3.989,9.474
		l5.485,12.465l0.726,1.453l-4.366,2.169v0l-1.412,0.701l-1.106,0.702l-1.225,0.631l-0.085,0.201l-2.67,1.696l-9.253,5.829
		l-4.878,4.712l-3.752,5.561l-2.409,4.366l-0.148,2.538l2.746,1.629l1.966,3.249l1.602,7.831l0.701,1.412l3.586,4.029l2.884,2.617
		l5.709,1.214l3.881-1.048l5.155-2.737l3.89-4.573l3.535-3.517l0.557-0.817l0.292-0.31l0.344-0.624l2.983-4.374l5.935-4.357
		l3.89-4.573l0.016-0.034l1.348,1.348h0l2.493,2.493l3.49,4.488l4.488,4.986l5.485,3.989l5.456,3.472l-0.09,0.119l-1.025,0.773
		l-0.008,0.596l-0.772,1.024l-0.139,5.364l-1.093,7.396l-1.274,1.689l-4.899,3.96l-0.541,0.328l-0.212,0.281l-1.131,0.914
		l-4.799,1.68l-0.208-1.481l-0.595-1.072l-0.107-0.34l-0.101-0.034l-2.567-4.627l-3.392-1.512l-1.883-3.79l-0.474-0.689
		l-0.859-1.642l-0.563-0.425l-0.632-0.918l-1.62-0.78h0l-1.62-0.78l-0.645,0.018l-0.906-0.305l-1.62-0.78l-0.513,0.255l-0.474-0.117
		l-6.498,3.932l-3.95,0.554l-1.551-0.286l-2.4,0.84l-2.647,0.875l-2.716,0.381l-1.057-0.355l-5.215-1.283l-1.648-1.495l-0.11-0.272
		l-0.549-0.326l-0.577-0.523l-0.705-0.237l-0.915-0.543l-1.022-0.108l-2.642-0.888l-3.387,0.978l-4.246,5.63l-2.538-0.148
		l-3.95,0.554l-1.343,1.195l-1.343,1.195l-3.95,0.554l-3.733-1.491l-3.457,0.485l-0.918,0.632l0.035,0.247l-0.884,0.879
		l-6.489,0.406l-1.165,0.667l-0.247,0.035l-0.918,0.632l-1.135,2.677l0.554,3.95l1.897,2.755l3.24,1.56l4.938-0.692l0.918-0.632
		l1.412-0.701l1.481-0.208l2.963-0.415l1.204-2.183l2.123-2.815l3.95-0.554l3.664,0.997l5.925-0.831l0.701,1.412l2.321,2.192
		l0.136,0.037l0.427,0.388l1.41,0.112l1.691,0.46l0.673-0.272l0.809,0.064l0.338-0.528l0.087-0.035l0.071-0.211l1.982-3.098
		l3.032,0.078l7.97-0.614l2.114,0.711l2.737,5.155l2.321,2.192l3.17,1.066l10.259,0.45l4.97,0.436l8.454,2.843l3.447,3.041
		l1.828,2.261l0.667,2.122l0.043,1.504l-1.794,6.596l-2.671,3.959l-0.301-0.018l-0.311,0.925l-0.143,0.211l-1.258,1.017l-8.39,4.801
		l-0.286,1.551l-3.249,1.966l-0.016,0.282l-0.408,0.281l0.623,4.444l-2.331,1.334l-0.148,2.538l1.126,0.849l2.607,0.641l0.415,2.963
		l6.193,4.67l2.252,1.698l0.563,0.424l1.022,0.108l1.409,0.474l-0.318,0.128l2.607,0.641l0.771,1.906l-0.988,0.138l-1.767,1.758
		l-0.037,0.635l-0.318,0.422l0.248,0.789l-0.04,0.692l0.474,0.689l0.227,0.723l0.352,0.118l0.843,1.224l0.514,1.271l-0.087,1.497
		l-0.401,1.005l-1.56,3.24l-0.815,1.373l0.04,2.68l-1.184,3.523l-2.27,5.353l-0.002,0.087l-1.133,2.59l-2.123,2.815l-5.925,0.831
		l-2.183-1.204l-2.4,0.84l-4.384,4.643l-0.997,3.664l-3.327,4.998l-0.148,2.538l2.044,0.217l0.277,1.975l-3.387,0.978l-1.343,1.195
		l0.84,2.4l-0.295,5.076l-1.204,2.183l0.909,2.893l0.623,4.444l-0.988,0.138l0.277,1.975l1.551,0.286l0.138,0.988l2.4-0.84
		l3.032,0.078l4.444-0.623l1.768-1.758l3.959-4.08l2.123-2.815l0.988-0.138l2.035,3.743l3.685,3.576l1.235,2.783l0.239,0.269
		l1.233,3.05l-2.755,1.897l-1.629,2.746l-3.456,0.485l-2.044-0.217l-0.669-0.284l0.106-0.141l-1.057-0.355l-0.521-0.128
		l-3.212-1.362l-2.963,0.415l-1.837,1.264l-0.849,1.126l2.114,0.711l1.606,0.681l0.152,1.086l-6.913,0.969l-1.837,1.265
		l-0.572,3.101l2.538,0.148l0.198,5.007l1.126,0.849l-0.088,6.558l2.114,0.711l0.138,0.988l2.252,1.698l0.346,2.469l-0.425,0.563
		l0.9,6.419l2.746,1.629l-1.698,2.252l0.84,2.4l0.771,1.906l-0.78,1.62l0.406,6.488l-1.126-0.849l-3.387,0.978l-1.481,0.208
		l-0.286,1.551l-1.481,0.208l-0.286,1.551l1.481-0.208l1.343-1.195l0.771,1.906l-0.988,0.138l0.909,2.894l2.044,0.217l0.978,3.387
		l0.771,1.906l-1.412,0.702l-0.701-1.412l-0.849,1.126l-2.963,0.415l-0.355,1.057l0.415,2.963l-1.481,0.208l0.138,0.988l1.481-0.208
		l1.333-1.266l2.271-1.757l-0.355,1.057l0.623,4.444l-1.906,0.771l-0.148,2.538l2.538,0.148l0.563,0.425l-4.73,2.174l-0.148,2.538
		l1.126,0.849l2.469-0.346l1.689,1.274l0.485,3.457l-3.17-1.066l-2.963,0.415l-0.039,1.516l-0.247,0.035l0.208,1.481l-1.551-0.286
		l-1.481,0.208l-1.975,0.277l-0.355,1.057l-2.469,0.346l0.208,1.481l1.551,0.286l-0.286,1.551l0.701,1.412l5.284,1.777l1.403,2.824
		l0.978,3.387l2.538,0.148l4.652,0.858l2.677,1.135l0.771,1.906l-4.375,1.117l-0.208-1.481l-1.126-0.849l-3.387,0.978l0.771,1.906
		l3.457-0.485l0.208,1.481l1.264,1.837l-1.481,0.208l-3.456,0.485l-0.503,3.595l1.551,0.286l0.217-2.044l1.906-0.771l0.978,3.387
		l0.563,0.424l1.274-1.689l-0.554-3.95l2.469-0.346l0.277,1.975l-0.988,0.138l0.208,1.481l1.62,0.78l4.089,0.434l2.4-0.84
		l-1.698,2.252l0.415,2.963l1.057,0.355l3.161,4.592l2.894-0.909l1.551,0.286l1.837-1.265l3.032,0.078l2.321,2.192l2.469-0.346
		l1.343-1.195l2.538,0.148l0.771,1.906l1.126,0.849l1.334,2.33l2.044,0.217l3.396-4.504l2.044,0.217l1.403,2.824l2.044,0.217
		l1.467-1.945l6.868-3.251l1.767-1.758l3.318-1.472l0.217-2.044l1.481-0.208l0.701,1.412l1.906-0.771l0.434-4.089l-1.975,0.277
		l0.711-2.114l0.226-5.57l2.755-1.897l3.812-1.541l0.217-2.044l0.988-0.138l-0.028-0.198l1.44-0.504l0.277,1.975l1.975-0.277
		l0.711-2.114l-2.114-0.711l-0.277-1.975l21.727-3.046l7.338-1.532l5.778,1.707l2.815,2.123l1.334,2.33l1.108,7.901l1.966,3.249
		l2.035,3.743l3.309,2.054l3.24,1.56l10.153,0.591l3.457-0.485l1.412-0.701l-0.434,4.089l0.692,4.938l0.701,1.412l2.391,2.686
		l0.069,0.494l1.758,1.767l0.681,0.072l1.501,1.132l2.312,5.718l3.447,3.041l1.033,0.254l0.497,1.094l0.455,1.301l0.187,0.112
		l1.309,2.88l4.488,9.972l3.989,5.485l4.986,4.488l3.989,2.992l2.493,0.499l1.994-2.493l3.49-1.496l0.773-0.048l0.008,0.002
		l0.026-0.004l7.17-0.448l1.496-0.499l4.488-2.992l2.992-2.493l1.995-5.485l-0.124-0.991l0.256-0.228l3.95-0.554l0.793,0.414
		l0.111,0.611v2.742l-0.499,0.997l-1.995,4.986l-1.71,1.425l-0.285,0.071l-0.399,0.499l-0.598,0.499l-0.332,0.665l-0.665,0.831
		l-0.249,0.997l-1.247,2.493l0.499,3.49l4.986,4.986l-0.499,2.493v3.989l0.997,1.496l0.997,1.496v3.989l-1.995,3.49v3.49
		l0.499,0.997h0.249l0.748,0.997l-0.499,6.482l0.499,1.247v0.249l0.499,0.997l2.493,1.496h3.989l2.992-1.496l1.994-2.992v-4.986
		l-0.499-0.997l-0.499-1.496v-1.496v-2.992l-1.995-1.496l-2.493-2.493v-3.989l1.496-3.49v-5.983l1.496-0.499l2.493-1.995
		l0.055-0.129l0.443-0.369l0.307-1.381l0.69-1.611l-0.176-0.704l0.176-0.792l-0.476-0.408l-0.023-0.091l-0.199-0.1l-2.792-2.393
		l0.499-2.992l0.484-7.741l0.205,0.048l4.444-0.623l1.412-0.701l-0.063-0.047l1.08-0.599l0.395-0.055l3.249-1.966l0.461-0.459
		l1.376-0.806l4.956-7.744l2.044,0.217l7.753,1.431l5.916,2.695l13.254,1.163l4.158,0.927l2.114,0.711l1.274-1.689l0.175-0.106
		l1.158,0.386v-0.997h-0.148l2.064-1.249l4.947-4.218l1.135-2.677l0.534-4.377l0.444-0.444l1.994-1.995l0.499-0.499l0.249-0.997
		l0.665-1.33l0.083,0.332l0.997-2.493l1.994-0.499v0.997l1.496,1.994l0.623,0.125l0.374,0.374l0.816-0.136l0.68,0.136l0.748-0.374
		l0.748-0.125l0.166-0.332l1.33-0.665l1.33-0.332l1.47,0.294l0.94,0.537l2.992,1.994l1.247,0.997l2.659,0.332l3.324,1.662
		l4.986,2.992l0.085,0.014l2.408,1.482l2.493,2.493v5.983l-1.496,1.994l0.499,2.493l3.989,4.986l3.49,1.496l4.488,3.989l2.493,0.499
		l0.499-1.995h1.995l0.499,3.49l0.997,1.496l2.493-0.499l4.986,0.997l1.995,1.496l2.992-0.499h4.488v0.997h1.995l0.499-1.496h0.997
		l-0.499-2.493l0.499-2.992v-4.488l-1.496-1.994l-3.49-4.488l-2.493-2.493v-0.997l3.989-1.496l4.053-3.153l2.927-0.836l0.299-0.199
		l3.191-0.798l1.496,2.992l2.493,1.995v3.49l-0.499,1.995l-0.374,0.623l-0.125-0.125l-0.499,0.997l-0.199,0.499l-1.795,2.992v2.992
		l0.997,1.994l0.997,0.997l0.997-1.994l0.897-1.496h1.097v6.981l0.997,1.995l2.992,0.997l0.499-2.493l4.986,0.499l0.997-0.997
		l6.482,0.997l0.997-1.994h0.997l1.994-1.995h2.493l0.499,0.499h6.482l1.995-2.493l1.995,1.994l2.493-0.499l1.995-0.499l1.496,0.997
		l6.482,0.499l-0.997,0.997l0.499,3.49v1.496l1.496,0.499v1.496l1.496,0.499v-1.496l-0.997-1.496l1.995-0.499v0.997l2.992-0.499
		l0.499-1.995l3.49-0.499l1.995-0.499l0.499,1.496l-1.496,0.499l0.997,0.997v2.992l0.997,0.499h2.992v1.496h0.997v-1.496
		l-1.068-1.496l-1.425-2.493l0.997,0.499h4.488l0.499,1.994l2.493,0.499l0.499-2.493l0.499-0.499l1.496,4.986l2.493,0.499
		l0.997-0.997v-2.493l1.496-1.496h3.49l-1.496,2.992v2.992l1.496,0.249v0.249h1.496l-0.499,1.496v1.496v1.994l0.997,0.499v2.493
		h1.496l0.499-1.496l1.496,0.499l1.496-0.499l2.493-4.986l2.992-0.997l3.49-0.499l0.499-2.493l1.496-4.488l1.496-2.493l1.994-0.499
		l0.499,4.488h-1.496l-0.997,0.997l0.499,3.49l1.995-0.499v-3.49h1.496l1.995-0.997v1.496v3.49l3.49,0.997l0.499-1.496l-1.995-0.499
		l-0.499-1.994l3.49-0.499l0.499-0.499l-1.496-1.496h-3.989v-2.493h1.995v0.997h1.496l0.997-1.496l0.997-3.989l-0.499-2.493
		l1.995,1.994h2.992l0.499-0.997l4.986-2.493l-0.499-2.992l0.499-1.496l-0.997-1.994l0.499-2.992l2.493-1.995v-2.493l-0.997-1.496
		l0.499-2.493l1.995-0.499l0.997-0.997l2.493-0.997l0.499-1.995l-3.989-3.989l0.499-1.994l2.992-0.997l0.499-1.994l-1.722-1.723
		l-2.266-7.253l-1.496-1.994l-0.997-3.49l-1.995-0.499v-1.496l1.496-0.499l-0.499-1.994l-3.989-0.997v1.995l-1.995-0.997
		l-5.485-0.997l-1.496-2.992l-0.997-3.989l-1.995-0.499v-0.997h-0.199l-0.299-1.496h1.994v-1.995l-1.994-0.997l-0.997,1.995h-1.995
		v-21.939l-0.499-7.479l0.228-0.502l2.298-0.322l2.617-2.884l-0.415-2.963l-0.348-0.7l0.607-0.607l2.493-0.997h7.978l3.49-1.496
		l3.989-1.496l2.493-2.992l1.994-2.992l1.995-9.972v-3.49l-0.499-1.496l2.719,0.68l-0.123,1.159l1.975-0.277l-0.079-0.564h4.483
		l1.496-0.499l2.992-1.995h0.499l1.994-1.496l0.166-0.665l1.33-1.33l5.983-1.496l3.49-2.992l0.997-2.493l1.186-1.581l0.042,0.084
		l0.988-0.138l4.583,0.364l12.345-1.731l5.57,0.226l0.528,0.178l0.035,0.247l0.494-0.069l1.057,0.355l1.828,2.261l-1.59,1.23
		l-0.247,0.035l-0.61,0.543l-0.308,0.089l-0.022,0.204l-0.403,0.359l0.554,3.95l0.563,0.425l0.329-0.046l1.785,0.757l1.906-0.771
		l1.767-1.758l-0.014-0.099l0.438-0.464l2.114,0.711l0.138,0.988l-0.918,0.632l-0.457,1.359l-0.323,0.261l-0.286,1.551l0.771,1.906
		l2.114,0.711l-0.148,2.538l-0.009,3.526l2.252,1.698l3.526,0.009l1.343-1.195l5.718-2.312l3.604-3.023l2.261-1.827l0.589-0.586
		l0.329-0.046l0.849-1.126l0.148-2.538l0.988-0.138l7.485-4.07l0.448-0.398l0.471-0.234l0.693-0.802l1.074-0.956l2.773-3.208
		l1.611-1.434l2.054-3.309l0.723-1.31l1.331-1.999l5.302-5.275l1.915-4.296l-0.827-2.63l-0.558-7.245l-1.762-4.357l-0.897-3.83
		l0.937-7.684l1.204-2.183l0.009-3.526l1.075-6.696l2.999-14.518l1.924-7.822l1.994-7.328l-0.692-4.938l-2.243-5.224l0.148-2.538
		l1.274-1.689l0.295-5.076l-1.948-10.3l0.355-1.057l0.451-1.574l0.329-0.046l0.572-3.101l4.029-3.586l-0.06-4.02l-1.403-2.824
		l-0.84-2.4l-0.346-2.469l-0.346-2.469l-0.601-0.809l-0.031-0.109l-1.85-2.426l-1.242-1.672l-3.161-4.592l-0.623-4.444l0.78-1.62
		l3.812-1.541l9.668-2.866l1.274-1.689l2.755-1.897l3.535-3.517l0.051-0.178l0.374-0.385l-0.087-0.617l1.014-3.541l1.915-4.296
		l1.006-7.19l-0.623-4.444L749.433,343.416z M109.517,609.355l-0.972-0.468l-0.154-0.381l0.574-2.333l0.06,0.029l0.077,0.191
		l0.301-0.009l0.756,0.364l0.208,1.481L109.517,609.355z M144.837,477.019l0.554,3.95l0.065,2.257l-0.143,0.775l0.319,5.679
		l-0.338,1.372l-3.11,2.954l-2.833,4.929l-2.4,0.84l-1.741-1.644l-0.087-0.617l-0.494,0.069l-1.472-3.318l-0.554-3.95l-0.692-4.938
		l-0.544-1.882l-0.989-5.456l2.123-2.815l7.347-5.058l2.48-0.779l0.483,0.364l0.069,0.494l0.502-0.007l0.061,0.432l3.101,0.572
		l-0.997,3.664l-1.412,0.701L144.837,477.019z M468.914,654.544h-0.623v0.499l-3.49,0.997h-3.989h-4.986l-1.939,0.277l-5.54,0.222
		l-2.493-2.493l-3.989-7.978l-0.427-2.564l0.427-0.427h0.499l0.062-0.499h0.436l0.997-2.992l3.49,1.496l0.499,1.496l1.496-0.499
		h3.989l2.244,0.249l0.748,0.249l5.669,0.472l1.312,0.525l2.493,3.49l4.488,3.49l0.499,2.493L468.914,654.544z M574.896,696.329
		l-0.399,0.1l-2.231-0.892l0.037-0.055l0.199-0.05l0.033-0.299l0.465-0.698h1.496l0.997,0.997L574.896,696.329z"/>
	<polygon points="693.541,584.845 693.661,584.857 695.29,582.111 694.736,578.161 693.472,576.324 690.726,574.695 
		685.788,575.388 683.596,577.709 682.599,581.373 679.992,580.732 676.535,581.216 675.617,581.849 673.425,584.17 672.29,586.847 
		673.406,591.221 675.659,592.92 678.335,594.055 681.792,593.57 683.628,592.306 686.037,587.94 690.481,587.317 692.812,585.983 	
		"/>
	<polygon points="633.852,589.214 637.378,589.224 639.709,587.89 640.589,586.472 640.982,586.201 641.762,584.581 
		641.139,580.137 640.507,579.219 639.681,578.85 638.677,577.965 638.818,577.945 637.692,577.096 634.097,576.593 
		633.546,576.766 633.109,576.731 632.519,577.089 631.203,577.502 630.673,578.206 629.86,578.697 629.788,579.379 
		629.081,580.317 629.279,585.324 631.176,588.079 	"/>
	<polygon points="632.569,557.754 632.948,557.621 632.74,556.14 631.051,554.866 630.488,554.442 629.569,555.074 629.076,555.143 
		626.676,555.983 624.207,556.329 623.687,556.846 623.289,556.961 623.082,557.448 622.44,558.087 621.304,560.764 
		621.789,564.221 623.053,566.057 625.799,567.686 629.75,567.132 630.458,566.026 630.599,566.006 632.228,563.261 
		631.535,558.323 632.523,558.184 	"/>
	<polygon points="620.163,572.378 619.44,572.606 619.322,572.958 618.097,573.801 617.386,575.915 617.802,578.877 
		618.434,579.796 621.743,581.849 626.187,581.226 626.612,580.663 626.594,580.54 627.816,578.48 627.895,575.448 627.193,574.036 
		625.854,573.027 625.854,572.771 625.515,572.771 625.504,572.763 624.711,572.496 623.884,571.983 623.126,571.963 
		622.333,571.697 621.61,571.924 620.852,571.904 	"/>
	<polygon points="678.557,617.185 676.789,618.943 676.78,622.469 678.539,624.236 681.571,624.315 683.763,621.993 
		683.841,618.961 681.52,616.769 	"/>
	<polygon points="672.802,579.726 675.765,579.31 677.532,577.552 678.104,574.451 675.289,572.328 671.833,572.813 
		670.628,574.996 671.113,578.452 	"/>
	<polygon points="739.578,553.245 740.921,552.05 740.931,548.524 738.678,546.826 735.716,547.241 734.373,548.436 
		734.364,551.962 736.616,553.66 	"/>
	<polygon points="665.719,618.984 663.96,617.217 660.928,617.139 659.654,618.828 660.07,621.79 661.196,622.64 663.734,622.787 
		665.077,621.592 	"/>
	<polygon points="607.829,590.345 605.577,588.647 602.052,588.638 599.859,590.959 600.413,594.91 601.046,595.828 
		603.722,596.963 606.616,596.054 608.245,593.308 	"/>
	<polygon points="614.493,576.824 613.367,575.975 609.841,575.966 608.992,577.091 608.844,579.63 610.533,580.903 
		613.496,580.488 614.415,579.856 	"/>
	<polygon points="663.471,588.586 663.055,585.624 661.929,584.775 658.966,585.19 658.117,586.316 658.533,589.279 
		659.096,589.703 662.128,589.782 	"/>
	<polygon points="720.169,587.183 719.536,586.265 716.929,585.623 715.162,587.381 715.508,589.85 718.184,590.986 
		720.515,589.652 	"/>
	<polygon points="744.489,563.13 741.812,561.995 737.368,562.618 734.751,565.502 735.375,569.946 736.639,571.783 
		738.259,572.563 738.822,572.987 739.142,572.988 739.879,573.343 741.089,572.993 742.348,572.997 742.419,572.609 
		743.266,572.364 745.883,569.48 745.753,564.967 	"/>
	<polygon points="205.373,653.818 203.328,653.602 199.733,653.099 199.872,654.086 201.422,654.372 202.262,656.772 202.7,656.797 
		202.825,657.197 204.8,656.92 206.005,654.737 	"/>
	<polygon points="692.822,636.331 691.973,637.458 692.319,639.926 692.882,640.351 695.844,639.936 695.992,637.398 
		695.36,636.479 	"/>
	<polygon points="295.598,694.036 293.129,694.382 292.28,695.508 293.12,697.908 295.165,698.125 296.507,696.929 296.161,694.461 
			"/>
	<polygon points="660.268,572.924 661.177,575.817 663.429,577.515 666.885,577.031 668.159,575.342 667.744,572.379 
		665.916,570.118 661.966,570.672 	"/>
	<polygon points="650.203,565.775 647.24,566.191 646.885,567.248 646.885,567.248 646.529,568.304 642.371,567.377 
		639.971,568.217 638.698,569.906 638.619,572.938 641.434,575.061 644.397,574.645 645.74,573.45 646.382,570.843 647.932,571.129 
		651.389,570.644 652.238,569.518 651.892,567.049 	"/>
	<polygon points="103.822,575.916 101.916,576.687 101.274,579.294 102.045,581.2 105.077,581.279 104.8,579.304 102.973,577.042 
		103.96,576.904 	"/>
	<polygon points="97.518,613.555 95.405,612.844 94.131,614.534 94.408,616.509 97.371,616.093 98.081,613.98 	"/>
	<polygon points="111.667,542.089 111.45,544.134 110.739,546.247 113.277,546.395 114.343,543.224 113.642,541.812 	"/>
	<polygon points="88.629,560.927 90.319,562.201 94.338,562.141 94.13,560.66 92.511,559.88 89.054,560.364 	"/>
	<polygon points="665.367,537.468 662.829,537.32 662.75,540.352 665.288,540.5 665.93,537.892 	"/>
	<polygon points="104.371,608.566 101.409,608.982 100.559,610.108 101.261,611.52 100.975,613.07 101.182,614.552 104.076,613.643 
		104.315,613.106 104.501,613.08 104.502,612.688 105.991,609.346 	"/>
	<polygon points="95.367,573.074 98.044,574.209 99.881,572.944 100.098,570.9 95.229,572.086 	"/>
	<polygon points="93.743,547.12 91.066,545.984 89.229,547.249 90.424,548.592 93.456,548.67 	"/>
	<polygon points="659.239,561.991 659.455,559.947 657.342,559.236 656.068,560.925 657.333,562.762 	"/>
	<polygon points="711.442,553.665 708.479,554.081 707.699,555.7 708.47,557.606 708.52,557.135 709.033,558.031 711.571,558.179 
		712.914,556.983 712.568,554.514 	"/>
	<polygon points="123.556,634.073 121.156,634.912 120.445,637.026 124.395,636.472 124.119,634.497 	"/>
	<polygon points="95.112,481.473 94.826,483.024 96.446,483.804 98.352,483.033 98.638,481.482 98.075,481.058 	"/>
	<polygon points="728.346,588.05 729.186,590.45 731.092,589.679 731.309,587.635 730.746,587.211 	"/>
	<polygon points="164.85,644.898 163.793,644.543 162.025,646.301 162.233,647.783 164.702,647.437 	"/>
	<polygon points="107.3,431.933 107.161,430.945 106.252,428.051 104.771,428.259 105.117,430.728 104.337,432.348 	"/>
	<polygon points="86.872,613.034 89.479,613.675 89.696,611.631 89.133,611.206 87.089,610.989 	"/>
	<polygon points="138.698,343.447 138.984,341.896 138.421,341.472 135.952,341.818 135.597,342.875 136.298,344.287 	"/>
	<polygon points="721.355,592.052 718.817,591.904 718.6,593.948 721.138,594.096 	"/>
	<polygon points="116.194,563.608 116.342,561.07 114.791,560.784 113.656,563.461 	"/>
	<polygon points="197.001,619.244 196.715,620.795 197.772,621.15 201.159,620.172 201.02,619.184 198.976,618.967 	"/>
	<polygon points="116.853,446.202 116.636,448.246 119.174,448.394 119.46,446.843 118.897,446.418 	"/>
	<polygon points="685.069,634.901 687.113,635.118 687.33,633.073 684.792,632.926 	"/>
	<polygon points="696.956,565.263 699.494,565.41 699.711,563.366 697.666,563.149 	"/>
	<polygon points="84.736,648.074 82.76,648.351 83.531,650.257 85.575,650.474 85.299,648.499 	"/>
	<polygon points="670.078,542.346 668.103,542.622 667.886,544.667 669.931,544.884 670.711,543.264 	"/>
	<polygon points="81.503,481.367 80.871,480.449 78.896,480.726 78.54,481.783 79.173,482.701 81.217,482.918 	"/>
	<polygon points="193.997,662.462 196.535,662.61 196.821,661.059 194.708,660.349 	"/>
	<polygon points="191.048,630.652 191.888,633.052 193.3,632.35 194.011,630.237 	"/>
	<polygon points="210.79,631.409 211.856,628.238 211.293,627.814 208.538,629.71 209.24,631.123 	"/>
	<polygon points="84.172,593.776 82.691,593.984 81.98,596.097 84.518,596.245 	"/>
	<polygon points="89.475,642.375 91.312,641.111 91.529,639.066 89.198,640.4 	"/>
	<polygon points="210.883,650.025 210.597,651.576 212.641,651.792 213.352,649.679 212.789,649.254 	"/>
	<polygon points="215.664,655.397 216.365,656.809 217.076,654.695 217.224,652.157 216.167,651.802 	"/>
	<polygon points="179.802,643.809 181.352,644.095 181.5,641.557 179.949,641.271 	"/>
	<polygon points="126.858,503.204 126.581,501.229 124.537,501.012 124.883,503.481 	"/>
	<polygon points="152.375,642.116 150.331,641.899 149.62,644.013 152.089,643.666 	"/>
	<polygon points="182.682,675.126 184.726,675.342 185.012,673.792 182.899,673.081 	"/>
	<polygon points="119.788,510.237 119.225,509.813 116.756,510.159 116.47,511.71 119.433,511.294 	"/>
	<polygon points="219.281,620.148 219.42,621.136 221.534,621.847 221.75,619.802 221.187,619.378 	"/>
	<polygon points="140.525,697.651 140.871,700.12 142.353,699.912 142.639,698.362 142.007,697.444 	"/>
	<polygon points="150.322,645.425 150.036,646.975 152.011,646.698 153.778,644.94 	"/>
	<polygon points="166.045,700.115 167.596,700.401 167.744,697.863 166.262,698.071 	"/>
	<polygon points="218.922,649.905 219.199,651.88 221.243,652.097 221.035,650.616 	"/>
	<polygon points="224.566,621.925 222.59,622.202 222.798,623.683 224.912,624.394 	"/>
	<polygon points="110.029,602.235 111.51,602.027 111.727,599.983 111.164,599.558 109.752,600.26 	"/>
	<polygon points="109.253,575.155 108.69,574.73 106.646,574.513 106.923,576.488 108.898,576.212 	"/>
	<polygon points="109.381,471.92 107.406,472.197 107.683,474.172 109.589,473.402 	"/>
	<polygon points="97.153,564.264 97.855,565.676 99.336,565.468 99.622,563.918 99.059,563.493 	"/>
	<polygon points="154.78,666.45 156.824,666.667 156.617,665.185 154.997,664.406 	"/>
	<polygon points="183.097,678.088 182.88,680.133 184.925,680.35 184.717,678.868 	"/>
	<polygon points="67.539,482.318 69.02,482.11 69.306,480.56 67.262,480.343 	"/>
	<polygon points="142.459,686.303 144.009,686.589 144.226,684.545 142.251,684.822 	"/>
	<polygon points="161.347,663.012 163.391,663.229 163.253,662.241 162.69,661.817 160.646,661.6 	"/>
	<polygon points="178.389,644.511 176.276,643.8 175.99,645.351 178.034,645.567 	"/>
	<polygon points="206.757,663.694 207.468,661.581 205.917,661.295 205.7,663.339 	"/>
	<polygon points="122.411,640.275 124.456,640.492 124.179,638.517 122.273,639.287 	"/>
	<polygon points="155.759,669.837 155.472,671.388 157.586,672.099 157.378,670.617 	"/>
	<polygon points="178.067,660.164 176.516,659.878 176.23,661.429 178.274,661.646 	"/>
	<polygon points="245.19,690.026 246.741,690.312 246.958,688.268 245.901,687.913 	"/>
	
		<rect x="111.438" y="624.299" transform="matrix(0.1814 -0.9834 0.9834 0.1814 -522.8486 622.0417)" width="1.577" height="1.577"/>
	<polygon points="117.275,635.96 118.045,637.866 119.319,636.177 118.756,635.752 	"/>
	<polygon points="125.923,672.51 123.948,672.787 123.593,673.843 125.637,674.06 	"/>
	<rect x="137.625" y="751.333" transform="matrix(0.9903 -0.1388 0.1388 0.9903 -103.1116 26.4976)" width="1.496" height="1.995"/>
	<rect x="136.111" y="722.809" transform="matrix(0.9903 -0.1388 0.1388 0.9903 -99.1349 26.0453)" width="1.994" height="1.496"/>
	<polygon points="190.37,647.362 191.92,647.649 192.206,646.098 190.162,645.881 	"/>
	<polygon points="196.434,647.519 197.421,647.381 197.638,645.336 196.581,644.981 	"/>
	<polygon points="732.213,565.354 733.764,565.641 734.05,564.09 732.006,563.873 	"/>
	<polygon points="44.779,557.005 45.056,558.98 46.468,558.279 46.33,557.291 	"/>
	<polygon points="52.712,570.494 52.851,571.482 54.895,571.699 54.687,570.217 	"/>
	<polygon points="112.027,620.08 110.052,620.357 110.754,621.769 111.741,621.631 	"/>
	<polygon points="97.171,503.338 95.689,503.546 95.897,505.027 97.448,505.314 	"/>
	<polygon points="115.926,558.107 114.376,557.821 114.653,559.796 116.065,559.095 	"/>
	<polygon points="178.888,669.615 179.728,672.015 180.716,671.877 180.439,669.902 	"/>
	<polygon points="188.653,656.666 189.641,656.528 189.858,654.483 188.376,654.691 	"/>
	<polygon points="187.896,622.535 185.99,623.305 185.704,624.856 187.61,624.085 	"/>
	<polygon points="240.856,648.34 241.844,648.202 242.624,646.582 241.073,646.296 	"/>
	<polygon points="672.137,564.211 671.851,565.761 673.826,565.484 673.618,564.003 	"/>
	<rect x="680.219" y="569.228" transform="matrix(0.1815 -0.9834 0.9834 0.1815 -3.1294 1136.2725)" width="1.577" height="1.577"/>
	<polygon points="82.695,565.284 81.213,565.492 80.858,566.548 82.902,566.765 	"/>
	<polygon points="148.744,655.716 148.527,657.76 150.008,657.553 149.801,656.071 	"/>
	<polygon points="120.96,439.584 119.409,439.298 119.686,441.273 	"/>
	<polygon points="154.729,658.905 156.28,659.191 156.635,658.134 155.015,657.354 	"/>
	<polygon points="186.886,658.424 187.093,659.906 188.081,659.767 188.861,658.147 188.298,657.723 	"/>
	<polygon points="198.284,667.903 199.341,668.258 199.558,666.214 198.077,666.422 	"/>
	<polygon points="196.235,642.512 195.248,642.651 194.961,644.201 196.512,644.487 	"/>
	<polygon points="201.949,668.9 203.43,668.692 203.716,667.142 202.235,667.349 	"/>
	<polygon points="214.736,659.555 216.218,659.347 216.504,657.796 215.447,657.441 	"/>
	<rect x="74.3" y="522.559" transform="matrix(0.9903 -0.1389 0.1389 0.9903 -71.9344 15.4894)" width="1.496" height="1.496"/>
	<polygon points="85.284,572.977 85.145,571.989 83.595,571.703 83.239,572.76 	"/>
	<rect x="99.747" y="607.103" transform="matrix(0.9903 -0.1389 0.1389 0.9903 -83.4302 19.8428)" width="1.496" height="1.496"/>
	<rect x="106.96" y="626.232" transform="matrix(0.9903 -0.1389 0.1389 0.9903 -86.013 21.0286)" width="1.496" height="1.496"/>
	<polygon points="99.908,508.493 100.895,508.355 101.675,506.735 99.7,507.012 	"/>
	<rect x="111.251" y="549.099" transform="matrix(0.9903 -0.1389 0.1389 0.9903 -75.2615 20.8772)" width="1.496" height="1.496"/>
	<polygon points="142.495,672.2 142.279,674.245 143.266,674.106 143.552,672.556 	"/>
	<rect x="163.484" y="691.817" transform="matrix(0.9903 -0.1389 0.1389 0.9903 -94.5758 29.5137)" width="1.496" height="1.496"/>
	<polygon points="209.355,667.861 210.412,668.217 210.698,666.666 209.148,666.38 	"/>
	<polygon points="215.35,613.651 216.337,613.512 216.623,611.962 215.073,611.675 	"/>
	<polygon points="237.21,640.292 236.5,642.406 237.981,642.198 237.704,640.223 	"/>
	<polygon points="77.379,602.784 75.898,602.992 76.036,603.98 77.587,604.266 	"/>
	<polygon points="117.142,714.02 116.856,715.571 118.337,715.363 118.129,713.882 	"/>
	<polygon points="99.982,588.035 100.615,588.953 102.52,588.183 	"/>
	<polygon points="121.198,699.857 122.749,700.143 123.104,699.087 121.553,698.801 	"/>
	<polygon points="130.017,644.244 130.718,645.656 131.706,645.517 131.498,644.036 	"/>
	<polygon points="131.092,637.547 130.381,639.661 131.369,639.523 131.585,637.478 	"/>
	<polygon points="157.512,646.431 155.961,646.145 156.169,647.626 157.65,647.418 	"/>
	<polygon points="197.555,623.194 197.762,624.676 199.036,622.987 	"/>
	<polygon points="202.368,643.163 203.919,643.449 203.711,641.968 202.23,642.175 	"/>
	<polygon points="200.854,628.774 199.867,628.912 199.581,630.463 201.062,630.255 	"/>
	<polygon points="102.923,677.245 103.14,675.2 102.152,675.339 	"/>
	<polygon points="107.648,649.897 108.705,650.252 108.991,648.702 107.51,648.909 	"/>
	<polygon points="95.381,540.848 96.368,540.71 96.654,539.159 95.667,539.297 	"/>
	<polygon points="125.583,749.089 126.57,748.95 126.926,747.893 125.375,747.607 	"/>
	<polygon points="117.225,682.289 118.212,682.15 118.567,681.093 117.017,680.807 	"/>
	<polygon points="134.213,738.816 135.269,739.171 135.555,737.621 134.074,737.828 	"/>
	<polygon points="109.124,516.768 109.331,518.249 110.813,518.041 	"/>
	<polygon points="127.358,636.057 128.346,635.918 128.632,634.368 127.644,634.506 	"/>
	<polygon points="158.481,653.344 158.126,654.401 159.676,654.687 159.469,653.205 	"/>
	<polygon points="187.531,627.117 186.05,627.325 186.188,628.312 187.245,628.668 	"/>
	<polygon points="206.309,646.135 207.297,645.996 207.652,644.939 206.102,644.653 	"/>
	<polygon points="216.924,685.933 216.638,687.484 218.119,687.276 217.981,686.288 	"/>
	<polygon points="228.742,615.801 229.729,615.663 230.016,614.112 229.028,614.25 	"/>
	<polygon points="77.38,656.658 78.367,656.52 78.722,655.463 77.666,655.108 	"/>
	<polygon points="85.349,602.17 86.692,600.975 85.141,600.689 	"/>
	<rect x="82.761" y="536.475" transform="matrix(0.9903 -0.1388 0.1388 0.9903 -73.732 16.7912)" width="1.496" height="0.997"/>
	<rect x="126.742" y="666.794" transform="matrix(0.9903 -0.1388 0.1388 0.9903 -91.4335 24.1261)" width="0.997" height="1.496"/>
	<rect x="101.256" y="420.596" transform="matrix(0.9903 -0.1388 0.1388 0.9903 -57.4671 18.2367)" width="1.496" height="0.997"/>
	<polygon points="155.532,675.407 154.683,676.533 156.234,676.82 156.095,675.832 	"/>
	<rect x="201.263" y="645.269" transform="matrix(0.9903 -0.1388 0.1388 0.9903 -87.7206 34.2607)" width="0.997" height="1.496"/>
	<polygon points="204.703,613.129 203.152,612.843 203.854,614.255 	"/>
	<rect x="214.872" y="645.375" transform="matrix(0.9903 -0.1389 0.1389 0.9903 -87.644 36.1709)" width="0.997" height="1.496"/>
	<rect x="725.792" y="604.961" transform="matrix(0.9903 -0.1389 0.1389 0.9903 -77.0704 106.7175)" width="0.997" height="1.496"/>
	<polygon points="98.077,642.68 98.363,641.129 97.376,641.267 	"/>
	<polygon points="127.132,641.627 126.145,641.765 126.846,643.178 	"/>
	<polygon points="132.564,640.865 133.759,642.208 134.114,641.152 	"/>
	<polygon points="114.309,420.88 114.023,422.43 115.011,422.292 114.872,421.304 	"/>
	<polygon points="160.937,685.223 161.924,685.085 162.279,684.028 160.798,684.236 	"/>
	<polygon points="178.745,697.328 179.032,695.777 178.044,695.916 	"/>
	<polygon points="206.001,683.437 207.551,683.723 207.413,682.735 	"/>
	<polygon points="729.472,535.026 730.173,536.438 730.459,534.887 	"/>
	<polygon points="732.351,512.468 732.065,514.019 733.053,513.88 732.845,512.399 	"/>
	<rect x="100.647" y="628.156" transform="matrix(0.9903 -0.1389 0.1389 0.9903 -86.3198 20.1369)" width="0.997" height="0.997"/>
	<polygon points="100.804,597.486 101.653,596.36 100.172,596.568 	"/>
	<polygon points="105.816,622.462 106.665,621.336 106.102,620.911 	"/>
	<rect x="115.443" y="687.005" transform="matrix(0.9903 -0.1388 0.1388 0.9903 -94.3139 22.7508)" width="0.997" height="0.997"/>
	<rect x="124.696" y="735.05" transform="matrix(0.9903 -0.1388 0.1388 0.9903 -100.8877 24.4986)" width="0.997" height="0.997"/>
	<rect x="111.537" y="562.182" transform="matrix(0.9903 -0.1388 0.1388 0.9903 -77.0197 20.9985)" width="0.997" height="0.997"/>
	<rect x="147.622" y="650.773" transform="matrix(0.9903 -0.1389 0.1389 0.9903 -89.0054 26.8793)" width="0.997" height="0.997"/>
	<rect x="153.114" y="654.031" transform="matrix(0.9903 -0.1388 0.1388 0.9903 -89.3666 27.6588)" width="0.997" height="0.997"/>
	<rect x="156.649" y="650.515" transform="matrix(0.9903 -0.1389 0.1389 0.9903 -88.8873 28.1324)" width="0.997" height="0.997"/>
	<rect x="129.28" y="437.345" transform="matrix(0.9903 -0.1389 0.1389 0.9903 -59.5449 22.2643)" width="0.997" height="0.997"/>
	<rect x="166.659" y="678.817" transform="matrix(0.9903 -0.1389 0.1389 0.9903 -92.7209 29.7969)" width="0.997" height="0.997"/>
	<rect x="184.439" y="647.625" transform="matrix(0.9903 -0.1389 0.1389 0.9903 -88.2115 31.9616)" width="0.997" height="0.997"/>
	<rect x="205.185" y="777.64" transform="matrix(0.9903 -0.1388 0.1388 0.9903 -106.0266 36.0859)" width="0.997" height="0.997"/>
	<rect x="189.423" y="629.304" transform="matrix(0.9903 -0.1389 0.1389 0.9903 -85.619 32.4762)" width="0.997" height="0.997"/>
	<rect x="199.267" y="613.323" transform="matrix(0.9903 -0.1388 0.1388 0.9903 -83.2692 33.6711)" width="0.997" height="0.997"/>
	<rect x="202.686" y="626.941" transform="matrix(0.9903 -0.1389 0.1389 0.9903 -85.1624 34.2951)" width="0.997" height="0.997"/>
	<rect x="207.929" y="617.647" transform="matrix(0.9903 -0.1388 0.1388 0.9903 -83.7905 34.9178)" width="0.997" height="0.997"/>
	<rect x="699.724" y="149.929" transform="matrix(0.9903 -0.1389 0.1389 0.9903 -14.1055 98.7018)" width="0.997" height="0.997"/>
	<polygon points="111.9,723.315 112.818,722.683 112.255,722.258 	"/>
	<polygon points="98.695,621.95 99.544,620.824 98.557,620.962 	"/>
	<polygon points="87.508,531.378 88.426,530.746 87.863,530.322 	"/>
	<polygon points="102.927,594.671 102.008,595.303 103.065,595.659 	"/>
	<polygon points="126.02,662.426 125.882,661.439 124.963,662.071 	"/>
	<polygon points="125.531,633.796 125.886,632.739 124.898,632.877 	"/>
	<polygon points="100.525,433.889 101.443,433.257 100.88,432.833 	"/>
	<polygon points="136.14,648.42 137.059,647.788 136.496,647.363 	"/>
	<polygon points="150.664,730.467 151.514,729.341 150.526,729.48 	"/>
	<polygon points="173.881,669.814 174.73,668.688 173.743,668.826 	"/>
	<polygon points="191.994,619.443 192.132,620.43 192.981,619.304 	"/>
	<polygon points="224.155,644.136 225.073,643.504 224.51,643.079 	"/>
	<polygon points="225.456,631.87 226.375,631.238 225.812,630.813 	"/>
	<polygon points="232.314,652.055 233.163,650.929 232.176,651.068 	"/>
</g>
</svg>
